<svg xmlns="http://www.w3.org/2000/svg" width="26" height="21" fill="none" viewBox="0 0 26 21">
  <path fill="#fff" fill-rule="evenodd" d="M10.207 15.913h10.677V4.16H2.42v11.753h4.11v2.44l3.677-2.44ZM5.109 21v-3.666H2.014c-.56 0-1.014-.455-1.014-1.015V3.754c0-.56.454-1.014 1.014-1.014H21.29c.56 0 1.014.454 1.014 1.014v12.565c0 .56-.454 1.015-1.014 1.015H10.635L5.109 21Z" clip-rule="evenodd"/>
  <path fill="#fff" fill-rule="evenodd" d="M6.072 1.42a.304.304 0 0 0-.304.305v2.246h-1.42V1.725C4.348.773 5.12 0 6.072 0h17.3c.952 0 1.724.773 1.724 1.725v10.56c0 .953-.772 1.725-1.725 1.725h-2.306v-1.42h2.306a.304.304 0 0 0 .305-.304V1.726a.304.304 0 0 0-.305-.305H6.072Z" clip-rule="evenodd"/>
  <rect width="12.174" height="1.014" x="4.043" y="6.798" fill="#fff" rx=".5"/>
  <rect width="10.145" height="1.014" x="4.043" y="9.841" fill="#fff" rx=".5"/>
  <rect width="11.159" height="1.014" x="4.043" y="12.884" fill="#fff" rx=".5"/>
</svg>
