<svg xmlns="http://www.w3.org/2000/svg" width="19" height="14" fill="none" viewBox="0 0 19 14">
  <path fill="#fff" d="M10 3.5a.5.5 0 0 1 .5-.5h3a.5.5 0 0 1 0 1h-3a.5.5 0 0 1-.5-.5Zm0 2a.5.5 0 0 1 .5-.5h3a.5.5 0 0 1 0 1h-3a.5.5 0 0 1-.5-.5Zm0 2a.5.5 0 0 1 .5-.5h3a.5.5 0 0 1 0 1h-3a.5.5 0 0 1-.5-.5Z"/>
  <path fill="#fff" fill-rule="evenodd" d="M15 1H1v9h14V1ZM1 0a1 1 0 0 0-1 1v9a1 1 0 0 0 1 1h14a1 1 0 0 0 1-1V1a1 1 0 0 0-1-1H1Z" clip-rule="evenodd"/>
  <path fill="#fff" fill-rule="evenodd" d="M8.965 10c.023.163.035.33.035.5v.5H2v-.5a3.5 3.5 0 0 1 6.965-.5ZM3.05 10a2.5 2.5 0 0 1 4.9 0h-4.9Zm.45-5.5a2 2 0 1 1 4 0 2 2 0 0 1-4 0Zm2-1a1 1 0 1 0 0 2 1 1 0 0 0 0-2Z" clip-rule="evenodd"/>
  <path fill="#fff" fill-rule="evenodd" d="M18.5 4.698V12a1.5 1.5 0 0 1-1.5 1.5H6.071v-1H17a.5.5 0 0 0 .5-.5V4.698h1Z" clip-rule="evenodd"/>
</svg>
